<svg width="20.824219" height="19.899170" viewBox="0 0 20.8242 19.8992" fill="none" xmlns="http://www.w3.org/2000/svg" xmlns:xlink="http://www.w3.org/1999/xlink">
	<desc>
			Created with Pixso.
	</desc>
	<defs/>
	<g style="mix-blend-mode:normal">
		<path id="Star 21" d="M10.41 0L7.95 7.6L0 7.6L6.43 12.29L3.97 19.89L10.41 15.2L16.84 19.89L14.38 12.29L20.82 7.6L12.87 7.6L10.41 0Z" fill="#FFE600" fill-opacity="1.000000" fill-rule="nonzero"/>
		<path id="Star 21" d="M10.41 0L7.95 7.6L0 7.6L6.43 12.29L3.97 19.89L10.41 15.2L16.84 19.89L14.38 12.29L20.82 7.6L12.87 7.6L10.41 0ZM10.41 0.32L8.02 7.7L0.3 7.7L6.55 12.26L4.16 19.63L10.41 15.07L16.65 19.63L14.27 12.26L20.51 7.7L12.79 7.7L10.41 0.32Z" fill="#1E222E" fill-opacity="1.000000" fill-rule="evenodd"/>
	</g>
</svg>
